<svg width="166" height="166" viewBox="0 0 166 166" fill="none" xmlns="http://www.w3.org/2000/svg">
<g clip-path="url(#clip0_2_20)">
<path fill-rule="evenodd" clip-rule="evenodd" d="M79.7928 48.2641C73.1844 46.6109 60.0669 48.2317 60.0669 48.2317V46.8155C60.0669 46.8155 76.7724 44.4411 79.7725 46.2584M79.7522 46.2847H85.1038C87.9215 44.3965 104.929 46.7568 104.929 46.7568V48.173C104.929 48.173 91.7933 46.617 85.1849 48.2702L79.7928 48.2581" fill="#970202"/>
<path d="M79.7928 48.2641C73.1844 46.6109 60.0669 48.2317 60.0669 48.2317V46.8155C60.0669 46.8155 76.7724 44.4411 79.7725 46.2584M79.7522 46.2847H85.1038C87.9215 44.3965 104.929 46.7568 104.929 46.7568V48.173C104.929 48.173 91.7933 46.617 85.1849 48.2702L79.7928 48.2581" stroke="#1A1A1A" stroke-width="0.6671"/>
<path fill-rule="evenodd" clip-rule="evenodd" d="M85.2255 48.335L83.5632 157.841L82.5294 161.864L81.455 157.82L79.813 48.335H85.2255Z" fill="#970202" stroke="#1A1A1A" stroke-width="1.3426"/>
<path fill-rule="evenodd" clip-rule="evenodd" d="M84.2727 46.2097H80.8063C80.7861 9.24932 81.5969 9.12573 81.5969 9.12573C81.5969 9.12573 82.7321 9.53296 83.7862 9.12573C84.1105 13.745 84.516 9.05077 84.2727 46.2097Z" fill="#970202" stroke="#1A1A1A" stroke-width="0.53399"/>
<path d="M85.5456 6.67912C85.5489 7.02923 85.4779 7.37648 85.3366 7.70083C85.1953 8.02518 84.9865 8.3202 84.7223 8.56887C84.4581 8.81753 84.1438 9.01492 83.7974 9.14962C83.451 9.28432 83.0794 9.35367 82.7041 9.35367C82.3289 9.35367 81.9573 9.28432 81.6109 9.14962C81.2645 9.01492 80.9502 8.81753 80.686 8.56887C80.4218 8.3202 80.213 8.02518 80.0717 7.70083C79.9304 7.37648 79.8594 7.02923 79.8627 6.67912C79.8594 6.32902 79.9304 5.98177 80.0717 5.65742C80.213 5.33307 80.4218 5.03804 80.686 4.78938C80.9502 4.54071 81.2645 4.34333 81.6109 4.20863C81.9573 4.07393 82.3289 4.00458 82.7041 4.00458C83.0794 4.00458 83.451 4.07393 83.7974 4.20863C84.1438 4.34333 84.4581 4.54071 84.7223 4.78938C84.9865 5.03804 85.1953 5.33307 85.3366 5.65742C85.4779 5.98177 85.5489 6.32902 85.5456 6.67912Z" fill="#970202" stroke="#1A1A1A" stroke-width="0.287822" stroke-linecap="round" stroke-linejoin="round"/>
<path d="M84.6306 6.69082C84.6328 6.92732 84.5848 7.1619 84.4894 7.38101C84.3939 7.60011 84.2529 7.79941 84.0744 7.96739C83.896 8.13537 83.6836 8.2687 83.4496 8.3597C83.2156 8.45069 82.9646 8.49754 82.7111 8.49754C82.4576 8.49754 82.2066 8.45069 81.9726 8.3597C81.7386 8.2687 81.5262 8.13537 81.3478 7.96739C81.1693 7.79941 81.0283 7.60011 80.9328 7.38101C80.8374 7.1619 80.7894 6.92732 80.7916 6.69082C80.7894 6.45431 80.8374 6.21974 80.9328 6.00063C81.0283 5.78152 81.1693 5.58223 81.3478 5.41425C81.5262 5.24627 81.7386 5.11293 81.9726 5.02194C82.2066 4.93094 82.4576 4.88409 82.7111 4.88409C82.9646 4.88409 83.2156 4.93094 83.4496 5.02194C83.6836 5.11293 83.896 5.24627 84.0744 5.41425C84.2529 5.58223 84.3939 5.78152 84.4894 6.00063C84.5848 6.21974 84.6328 6.45431 84.6306 6.69082Z" fill="#970202" stroke="#1A1A1A" stroke-width="0.19443" stroke-linecap="round" stroke-linejoin="round"/>
<path fill-rule="evenodd" clip-rule="evenodd" d="M82.2253 48.5275L82.4889 92.9416L82.6713 94.5727L82.8335 92.9325L83.1173 48.5265H82.2253V48.5275Z" fill="#240903" stroke="#1A1A1A" stroke-width="0.17254"/>
</g>
<defs>
<clipPath id="clip0_2_20">
<rect width="45" height="158" fill="white" transform="translate(60 4)"/>
</clipPath>
</defs>
</svg>
