<svg width="200" height="100" viewBox="0 0 661 368" fill="none" xmlns="http://www.w3.org/2000/svg">
<g clip-path="url(#clip0_1_3)">
<path fill-rule="evenodd" clip-rule="evenodd" d="M54.3034 104.135C39.1775 100.358 9.15308 104.061 9.15308 104.061V100.825C9.15308 100.825 47.3901 95.4002 54.2571 99.5525M54.2107 99.6126H66.4598C72.9092 95.2984 111.838 100.691 111.838 100.691V103.927C111.838 103.927 81.7713 100.372 66.6454 104.149L54.3034 104.121" fill="#E6E6E6"/>
<path d="M54.3034 104.135C39.1775 100.358 9.15308 104.061 9.15308 104.061V100.825C9.15308 100.825 47.3901 95.4002 54.2571 99.5525M54.2107 99.6126H66.4598C72.9092 95.2984 111.838 100.691 111.838 100.691V103.927C111.838 103.927 81.7713 100.372 66.6454 104.149L54.3034 104.121" stroke="#1A1A1A" stroke-width="0.6671"/>
<path fill-rule="evenodd" clip-rule="evenodd" d="M66.7383 104.297L62.9336 354.497L60.5673 363.69L58.1081 354.45L54.3499 104.297H66.7383Z" fill="#E6E6E6" stroke="#1A1A1A" stroke-width="1.3426"/>
<path fill-rule="evenodd" clip-rule="evenodd" d="M64.5575 99.4414H56.6234C56.577 14.9939 58.4329 14.7115 58.4329 14.7115C58.4329 14.7115 61.0312 15.6419 63.4439 14.7115C64.1863 25.2657 65.1143 14.5402 64.5575 99.4414Z" fill="#F5F5F5" stroke="#1A1A1A" stroke-width="0.53399"/>
<path d="M67.471 9.12139C67.4786 9.92131 67.316 10.7147 66.9926 11.4558C66.6692 12.1969 66.1913 12.8709 65.5866 13.4391C64.9819 14.0073 64.2624 14.4582 63.4695 14.766C62.6767 15.0738 61.8262 15.2322 60.9672 15.2322C60.1083 15.2322 59.2578 15.0738 58.4649 14.766C57.6721 14.4582 56.9525 14.0073 56.3478 13.4391C55.7431 12.8709 55.2653 12.1969 54.9419 11.4558C54.6184 10.7147 54.4558 9.92131 54.4635 9.12139C54.4558 8.32147 54.6184 7.52807 54.9419 6.78699C55.2653 6.04591 55.7431 5.37183 56.3478 4.80368C56.9525 4.23553 57.6721 3.78455 58.4649 3.47678C59.2578 3.16902 60.1083 3.01056 60.9672 3.01056C61.8262 3.01056 62.6767 3.16902 63.4695 3.47678C64.2624 3.78455 64.9819 4.23553 65.5866 4.80368C66.1913 5.37183 66.6692 6.04591 66.9926 6.78699C67.316 7.52807 67.4786 8.32147 67.471 9.12139Z" fill="#F5F5F5" stroke="#1A1A1A" stroke-width="0.287822" stroke-linecap="round" stroke-linejoin="round"/>
<path d="M65.3766 9.1481C65.3817 9.68847 65.2719 10.2244 65.0534 10.725C64.8349 11.2257 64.5121 11.681 64.1037 12.0648C63.6952 12.4486 63.2091 12.7533 62.6735 12.9612C62.1379 13.1691 61.5634 13.2761 60.9832 13.2761C60.4029 13.2761 59.8284 13.1691 59.2928 12.9612C58.7572 12.7533 58.2711 12.4486 57.8627 12.0648C57.4542 11.681 57.1314 11.2257 56.9129 10.725C56.6944 10.2244 56.5846 9.68847 56.5897 9.1481C56.5846 8.60774 56.6944 8.07177 56.9129 7.57115C57.1314 7.07054 57.4542 6.61518 57.8627 6.23138C58.2711 5.84758 58.7572 5.54293 59.2928 5.33503C59.8284 5.12712 60.4029 5.02008 60.9832 5.02008C61.5634 5.02008 62.1379 5.12712 62.6735 5.33503C63.2091 5.54293 63.6952 5.84758 64.1037 6.23138C64.5121 6.61518 64.8349 7.07054 65.0534 7.57115C65.2719 8.07177 65.3817 8.60774 65.3766 9.1481Z" fill="#1A1A1A" stroke="#1A1A1A" stroke-width="0.19443" stroke-linecap="round" stroke-linejoin="round"/>
<path fill-rule="evenodd" clip-rule="evenodd" d="M59.8713 104.737L60.4745 206.215L60.892 209.942L61.2632 206.194L61.9128 104.735H59.8713V104.737Z" fill="#3C3932" stroke="#1A1A1A" stroke-width="0.17254"/>
</g>
<path d="M111.544 204.28C89.144 187 86.712 163.96 105.272 146.936L115.384 137.72C121.272 139.256 140.6 150.392 132.92 180.472L111.544 204.28ZM105.016 147.96C98.744 165.368 103.992 182.392 118.84 192.376L124.728 187.64C126.52 162.68 111.928 148.984 105.016 147.96ZM152.271 162.808L140.111 156.408L168.271 137.72C167.247 140.408 166.479 143.096 165.711 145.784L174.543 137.72C179.535 137.72 180.687 149.368 190.671 149.368L180.303 159.736C170.959 159.736 170.191 148.728 165.327 147.064C161.359 162.936 161.743 178.936 166.735 187L175.951 183.928L155.727 204.28C150.607 190.2 149.071 171 152.271 162.808ZM192.891 156.408L221.051 137.72C219.515 141.688 218.363 145.784 217.467 149.88L229.499 137.72C237.691 140.024 241.403 144.248 242.939 149.368L254.459 137.72C282.875 145.4 261.755 173.56 272.763 187.512L280.827 185.08L262.267 204.28C249.467 177.784 269.947 151.416 243.323 150.264C246.139 162.04 238.843 178.04 247.163 187.512L255.227 185.08L236.667 204.28C222.459 177.528 242.939 152.184 217.339 150.264C214.139 165.112 214.779 179.576 219.515 187L228.731 183.928L208.507 204.28C203.387 190.2 201.851 171 205.051 162.808L192.891 156.408ZM303.516 204.28C282.012 187.768 280.476 164.6 299.804 146.936L309.916 137.72C314.524 137.72 316.7 144.248 323.1 147.576C324.508 148.344 325.532 148.6 327.58 148.856C315.676 158.328 304.796 167.288 299.036 176.12C301.468 181.624 305.564 186.488 311.452 190.456L322.716 185.72L303.516 204.28ZM299.548 147.96C296.348 156.92 295.708 165.112 297.628 172.28C300.956 166.136 305.052 161.4 309.788 157.176C305.82 153.592 304.156 148.344 299.548 147.96ZM327.766 156.408L355.926 137.72C354.39 141.688 353.238 145.784 352.342 149.88L364.374 137.72C391.51 145.4 369.75 173.56 382.038 187.512L390.102 185.08L371.542 204.28C357.334 177.528 377.814 152.184 352.214 150.264C349.014 165.112 349.654 179.576 354.39 187L363.606 183.928L343.382 204.28C338.262 190.2 336.726 171 339.926 162.808L327.766 156.408ZM389.736 151.16L400.744 140.408C401.384 140.024 401.896 139.768 402.536 139.384C405.352 133.752 409.96 128.12 417.64 122.36C414.44 128.376 412.52 133.24 411.24 137.336C417.768 137.208 424.936 139.128 437.352 134.904L426.856 149.24C419.816 149.24 414.184 148.856 409.32 148.728C409.192 152.824 409.576 156.792 409.704 161.784C410.344 179.192 412.52 187.512 415.208 186.36L424.424 182.52L406.12 204.28C401.128 195.96 398.44 187 398.44 170.104C398.44 163.064 397.928 156.024 399.336 148.984C396.136 149.368 393.064 150.008 389.736 151.16ZM441.943 162.808L431.831 156.408L462.551 137.72C448.087 155.128 451.159 182.264 460.247 188.536L472.023 185.464C470.871 178.04 470.999 170.232 472.663 163.448L464.471 156.92L492.631 137.72C481.239 151.16 480.215 177.272 490.327 187.512L497.751 185.08L478.551 204.28C475.351 199.16 473.175 192.76 472.151 186.104L449.751 204.28C441.303 190.328 438.103 173.432 441.943 162.808ZM497.391 156.408L525.551 137.72C524.015 141.688 522.863 145.784 521.967 149.88L533.999 137.72C542.191 140.024 545.903 144.248 547.439 149.368L558.959 137.72C587.375 145.4 566.255 173.56 577.263 187.512L585.327 185.08L566.767 204.28C553.967 177.784 574.447 151.416 547.823 150.264C550.639 162.04 543.343 178.04 551.663 187.512L559.727 185.08L541.167 204.28C526.959 177.528 547.439 152.184 521.839 150.264C518.639 165.112 519.279 179.576 524.015 187L533.231 183.928L513.007 204.28C507.887 190.2 506.351 171 509.551 162.808L497.391 156.408Z" fill="#E6E6E6"/>
<defs>
<clipPath id="clip0_1_3">
<rect width="103" height="361" fill="white" transform="translate(9 3)"/>
</clipPath>
</defs>
</svg>
